<?xml version="1.0" encoding="iso-8859-1"?>
<!-- Generator: Adobe Illustrator 16.0.0, SVG Export Plug-In . SVG Version: 6.00 Build 0)  -->
<!DOCTYPE svg PUBLIC "-//W3C//DTD SVG 1.1//EN" "http://www.w3.org/Graphics/SVG/1.1/DTD/svg11.dtd">
<svg version="1.1" id="Capa_1" xmlns="http://www.w3.org/2000/svg" xmlns:xlink="http://www.w3.org/1999/xlink" x="0px" y="0px"
	 width="68.879px" height="68.879px" viewBox="0 0 68.879 68.879" style="enable-background:new 0 0 68.879 68.879;"
	 xml:space="preserve">
<g>
	<path d="M41.38,0C28.652,0,17.979,8.939,15.29,20.867l-4.319-5.27l-3.867,3.17l9.904,12.083l12.083-9.904l-3.17-3.867l-5.705,4.676
		C22.48,12.163,31.107,5,41.38,5c11.992,0,21.749,9.757,21.749,21.749c0,11.993-9.757,21.75-21.749,21.75h-6.147
		c-1.427-8.156-8.543-14.38-17.104-14.38c-9.582,0-17.379,7.796-17.379,17.38s7.797,17.38,17.379,17.38
		c8.906,0,16.26-6.736,17.257-15.38h5.994c14.749,0,26.749-12,26.749-26.75C68.129,12,56.129,0,41.38,0z M18.129,62.383
		c-6.002,0-10.885-4.882-10.885-10.885s4.883-10.885,10.885-10.885s10.885,4.882,10.885,10.885S24.131,62.383,18.129,62.383z"/>
</g>
<g>
</g>
<g>
</g>
<g>
</g>
<g>
</g>
<g>
</g>
<g>
</g>
<g>
</g>
<g>
</g>
<g>
</g>
<g>
</g>
<g>
</g>
<g>
</g>
<g>
</g>
<g>
</g>
<g>
</g>
</svg>
